<?xml version="1.0" encoding="utf-8"?>
<!-- Generator: Adobe Illustrator 18.0.0, SVG Export Plug-In . SVG Version: 6.00 Build 0)  -->
<!DOCTYPE svg PUBLIC "-//W3C//DTD SVG 1.1//EN" "http://www.w3.org/Graphics/SVG/1.1/DTD/svg11.dtd">
<svg version="1.1" xmlns="http://www.w3.org/2000/svg" xmlns:xlink="http://www.w3.org/1999/xlink" x="0px" y="0px"
	 viewBox="0 0 56 56" enable-background="new 0 0 56 56" xml:space="preserve">
<g id="Background">
	<rect width="56" height="56"/>
</g>
<g id="Bug">
	<g id="_x39_72-bug_x40_2x.png">
		<g>
			<path fill="#FFFFFF" d="M42.9,16.1l-4.5,4.5c-1.2-1.1-2.4-2-3.7-2.8l1.8-6.5c0.1-0.4-0.1-0.8-0.5-0.9c-0.4-0.1-0.8,0.1-0.9,0.5
				l-1.7,6.2c-3.1-1.6-6.4-2.3-9.4-1.9c-1.8-2.2-2.5-6.8,0.3-9.6c0.3-0.3,0.3-0.7,0-1c-0.3-0.3-0.7-0.3-1,0
				c-2.7,2.7-2.9,7.7-0.8,10.9c-1.8,0.4-3.3,1.3-4.6,2.6s-2.1,2.9-2.6,4.6c-3.2-2.1-8.2-1.8-10.9,0.8c-0.3,0.3-0.3,0.7,0,1
				c0.3,0.3,0.7,0.3,1,0c2.8-2.8,7.4-2.1,9.6-0.3c-0.4,2.9,0.3,6.2,1.9,9.4l-6.2,1.7c-0.4,0.1-0.6,0.5-0.5,0.9
				c0.1,0.4,0.5,0.6,0.9,0.5l6.5-1.8c0.8,1.3,1.7,2.5,2.8,3.7l-4.5,4.5c-0.3,0.3-0.3,0.7,0,1c0.3,0.3,0.7,0.3,1,0l4.5-4.5
				c1.2,1.1,2.4,2,3.7,2.8l-1.8,6.5c-0.1,0.4,0.1,0.8,0.5,0.9c0.4,0.1,0.8-0.1,0.9-0.5l1.7-6.2c5.6,2.9,11.8,2.8,15.5-0.9
				c3.7-3.7,3.8-9.9,0.9-15.5l6.2-1.7c0.4-0.1,0.6-0.5,0.5-0.9c-0.1-0.4-0.5-0.6-0.9-0.5l-6.5,1.8c-0.8-1.3-1.7-2.5-2.8-3.7l4.5-4.5
				c0.3-0.3,0.3-0.7,0-1C43.7,15.8,43.2,15.8,42.9,16.1z M19,19c2.5-2.5,6.3-3.1,10.3-2.1c0,2.3-1.6,5.4-4.3,8.1
				c-2.7,2.7-5.8,4.3-8.1,4.3C15.9,25.3,16.5,21.5,19,19z M41,41c-4.4,4.4-12.9,3-19-3c-2.2-2.2-3.8-4.8-4.7-7.4
				c2.6-0.2,5.9-1.8,8.7-4.6s4.4-6,4.6-8.7c2.6,0.9,5.1,2.5,7.4,4.7C44,28.1,45.4,36.6,41,41z M25.5,31.5c-1.1,1.1-1.1,2.9,0,4
				s2.9,1.1,4,0c1.1-1.1,1.1-2.9,0-4S26.6,30.4,25.5,31.5z M28.5,34.5c-0.5,0.5-1.4,0.5-2,0s-0.6-1.4,0-2c0.5-0.5,1.4-0.5,2,0
				S29.1,33.9,28.5,34.5z M33.5,30.5c-1.6,1.6-1.6,4.3,0,6s4.3,1.7,6,0s1.6-4.3,0-6C37.8,28.9,35.1,28.9,33.5,30.5z M38.5,35.5
				c-1.1,1.1-2.9,1.1-4,0s-1.1-2.9,0-4c1.1-1.1,2.9-1.1,4,0S39.6,34.4,38.5,35.5z"/>
		</g>
	</g>
</g>
</svg>
