<?xml version="1.0" encoding="utf-8"?>
<!-- Generator: Adobe Illustrator 18.0.0, SVG Export Plug-In . SVG Version: 6.00 Build 0)  -->
<!DOCTYPE svg PUBLIC "-//W3C//DTD SVG 1.1//EN" "http://www.w3.org/Graphics/SVG/1.1/DTD/svg11.dtd">
<svg version="1.1" xmlns="http://www.w3.org/2000/svg" xmlns:xlink="http://www.w3.org/1999/xlink" x="0px" y="0px"
	 viewBox="0 1024 1024 1024" enable-background="new 0 1024 1024 1024" xml:space="preserve">
<g id="Background">
	<rect x="-0.6" y="1023.4" fill="#FFFFFF" width="1024" height="1024"/>
</g>
<g id="Bug_1_">
	<g id="Bug_2_">
		<g id="_x39_72-bug_x40_2x.png_1_">
			<g>
				<path fill="#0077FF" d="M805.5,1334.8l-82.3,82.3c-21.9-20.1-43.9-36.6-67.7-51.2l32.9-118.9c1.8-7.3-1.8-14.6-9.1-16.5
					c-7.3-1.8-14.6,1.8-16.5,9.1L631.7,1353c-56.7-29.3-117-42.1-171.9-34.7c-32.9-40.2-45.7-124.3,5.5-175.5
					c5.5-5.5,5.5-12.8,0-18.3s-12.8-5.5-18.3,0c-49.4,49.4-53,140.8-14.6,199.3c-32.9,7.3-60.3,23.8-84.1,47.5
					c-23.8,23.7-38.4,53-47.5,84.1c-58.5-38.4-149.9-32.9-199.3,14.6c-5.5,5.5-5.5,12.8,0,18.3s12.8,5.5,18.3,0
					c51.2-51.2,135.3-38.4,175.5-5.5c-7.3,53,5.5,113.4,34.7,171.9l-113.4,31.1c-7.3,1.8-11,9.1-9.1,16.5c1.8,7.3,9.1,11,16.5,9.1
					l118.9-32.9c14.6,23.8,31.1,45.7,51.2,67.7l-82.3,82.3c-5.5,5.5-5.5,12.8,0,18.3s12.8,5.5,18.3,0l82.3-82.3
					c21.9,20.1,43.9,36.6,67.7,51.2l-32.9,118.9c-1.8,7.3,1.8,14.6,9.1,16.5c7.3,1.8,14.6-1.8,16.5-9.1l31.1-113.4
					c102.4,53,215.8,51.2,283.4-16.5c67.6-67.7,69.5-181,16.5-283.4l113.2-31.2c7.3-1.8,11-9.1,9.1-16.5c-1.8-7.3-9.1-11-16.5-9.1
					l-118.9,32.9c-14.6-23.8-31.1-45.7-51.2-67.7l82.3-82.3c5.5-5.5,5.5-12.8,0-18.3C820.1,1329.3,810.9,1329.3,805.5,1334.8z
					 M368.4,1387.8c45.7-45.7,115.2-56.7,188.3-38.4c0,42.1-29.3,98.7-78.6,148.1c-49.4,49.4-106.1,78.6-148.1,78.6
					C311.7,1503,322.7,1433.5,368.4,1387.8z M770.7,1790.1c-80.5,80.5-235.9,54.9-347.4-54.9c-40.2-40.2-69.5-87.8-85.9-135.3
					c47.5-3.7,107.9-32.9,159.1-84.1c51.2-51.2,80.5-109.7,84.1-159.1c47.5,16.5,93.3,45.7,135.3,85.9
					C825.6,1554.2,851.2,1709.7,770.7,1790.1z M487.3,1616.4c-20.1,20.1-20.1,53,0,73.1s53,20.1,73.1,0s20.1-53,0-73.1
					S507.4,1596.3,487.3,1616.4z M542.1,1671.3c-9.1,9.1-25.6,9.1-36.6,0s-11-25.6,0-36.6c9.1-9.1,25.6-9.1,36.6,0
					S553.1,1660.3,542.1,1671.3z M633.6,1598.1c-29.3,29.3-29.3,78.6,0,109.7c29.3,31.1,78.6,31.1,109.7,0
					c31.1-31.1,29.3-78.6,0-109.7C712.2,1568.9,662.8,1568.9,633.6,1598.1z M725,1689.5c-20.1,20.1-53,20.1-73.1,0s-20.1-53,0-73.1
					s53-20.1,73.1,0S745.1,1669.4,725,1689.5z"/>
			</g>
		</g>
	</g>
</g>
</svg>
